<?xml version="1.0" encoding="UTF-8" standalone="no"?>
<!-- Created with Inkscape (http://www.inkscape.org/) -->

<svg
   xmlns:dc="http://purl.org/dc/elements/1.1/"
   xmlns:cc="http://creativecommons.org/ns#"
   xmlns:rdf="http://www.w3.org/1999/02/22-rdf-syntax-ns#"
   xmlns:svg="http://www.w3.org/2000/svg"
   xmlns="http://www.w3.org/2000/svg"
   xmlns:sodipodi="http://sodipodi.sourceforge.net/DTD/sodipodi-0.dtd"
   xmlns:inkscape="http://www.inkscape.org/namespaces/inkscape"
   width="17mm"
   height="10mm"
   viewBox="0 0 60.236222 35.43307"
   id="svg4322"
   version="1.1"
   inkscape:version="0.91 r13725"
   sodipodi:docname="inik.svg">
  <defs
     id="defs4324" />
  <sodipodi:namedview
     id="base"
     pagecolor="#ffffff"
     bordercolor="#666666"
     borderopacity="1.0"
     inkscape:pageopacity="0.0"
     inkscape:pageshadow="2"
     inkscape:zoom="2.8492187"
     inkscape:cx="132.62908"
     inkscape:cy="39.113819"
     inkscape:document-units="px"
     inkscape:current-layer="layer1"
     showgrid="false"
     inkscape:window-width="1366"
     inkscape:window-height="706"
     inkscape:window-x="-8"
     inkscape:window-y="-8"
     inkscape:window-maximized="1" />
  <metadata
     id="metadata4327">
    <rdf:RDF>
      <cc:Work
         rdf:about="">
        <dc:format>image/svg+xml</dc:format>
        <dc:type
           rdf:resource="http://purl.org/dc/dcmitype/StillImage" />
        <dc:title></dc:title>
      </cc:Work>
    </rdf:RDF>
  </metadata>
  <g
     inkscape:label="Layer 1"
     inkscape:groupmode="layer"
     id="layer1"
     transform="translate(0,-1016.9291)">
    <ellipse
       style="fill:#00ff00;fill-opacity:1;stroke:none;stroke-opacity:1"
       id="path4502"
       cx="30.885658"
       cy="1038.8053"
       rx="28.217821"
       ry="11.399127" />
    <ellipse
       style="fill:#ffd5d5;fill-opacity:1;stroke:none;stroke-opacity:1"
       id="path4506"
       cx="33.360939"
       cy="1028.7473"
       rx="13.861386"
       ry="10.728589" />
    <path
       style="fill:none;fill-rule:evenodd;stroke:#000000;stroke-width:1.16382313px;stroke-linecap:butt;stroke-linejoin:miter;stroke-opacity:1"
       d="m 35.341109,1023.383 c 0.33003,1.7881 0.9901,3.5211 0.9901,5.3643 0,0.447 -0.66007,0 -0.9901,0 -0.33003,0 -0.9901,0.447 -0.9901,0 0,-0.4471 0.75673,-0.3161 0.9901,0 0.23337,0.316 -0.23337,1.025 0,1.3411 0.49505,0.6705 2.47525,-0.6706 2.9703,0 0.23337,0.316 -0.23337,1.0249 0,1.3411 0.23337,0.316 0.75673,-0.3162 0.9901,0 0.23337,0.316 -0.23337,1.0249 0,1.3411 0.23337,0.316 0.9901,-0.4472 0.9901,0 0,0.4469 -0.66007,0 -0.9901,0 -0.33004,0 -0.66007,0 -0.9901,0 -2.64027,0 0.33003,0.4469 -0.9901,-1.3411 -0.23337,-0.3162 -0.75673,0.316 -0.9901,0 -0.23337,-0.3162 0.23337,-1.0251 0,-1.3411 -0.68702,-0.9307 -2.43556,1.7428 -1.9802,-1.3411 0.26687,-1.8074 -0.37066,-5.3643 0.9901,-5.3643 1.36076,0 0.38155,3.7158 0.9901,5.3643 0.29519,0.7996 1.51346,-0.6322 1.9802,0 0.23337,0.316 -0.23337,1.025 0,1.3411 0.23337,0.316 0.75673,-0.3161 0.9901,0 0.23337,0.316 -0.23337,1.0249 0,1.3411 0.23337,0.316 0.9901,-0.4471 0.9901,0 0,0.447 -0.66007,0 -0.9901,0 -0.33004,0 -0.66007,0 -0.9901,0 -0.33004,0 -0.75673,0.316 -0.9901,0 -0.23337,-0.3162 0.23337,-1.0251 0,-1.3411 -0.23337,-0.3161 -0.66007,0 -0.9901,0 0,-0.4471 0.23337,-1.0251 0,-1.3411 -0.23337,-0.3161 -0.91005,0.4336 -0.9901,0 -0.32018,-1.7348 -1.32013,-5.3643 0,-5.3643 1.32013,0 0,3.5761 0,5.3643 0,0.447 0,0.894 0,1.3411 0,4.9553 0,3.6017 0,6.7052"
       id="path4508"
       inkscape:connector-curvature="0" />
  </g>
</svg>
